<?xml version="1.0" standalone="no"?><svg xmlns="http://www.w3.org/2000/svg" viewBox="0 0 1440 320"><path fill="#056A2C" fill-opacity="1" d="M0,96L30,112C60,128,120,160,180,144C240,128,300,64,360,37.3C420,11,480,21,540,48C600,75,660,117,720,128C780,139,840,117,900,128C960,139,1020,181,1080,170.7C1140,160,1200,96,1260,64C1320,32,1380,32,1410,32L1440,32L1440,320L1410,320C1380,320,1320,320,1260,320C1200,320,1140,320,1080,320C1020,320,960,320,900,320C840,320,780,320,720,320C660,320,600,320,540,320C480,320,420,320,360,320C300,320,240,320,180,320C120,320,60,320,30,320L0,320Z"></path></svg>