<?xml version="1.0" standalone="no"?><svg xmlns="http://www.w3.org/2000/svg" viewBox="0 0 1440 320"><path fill="#f3f4f5" fill-opacity="1" d="M0,128L40,133.3C80,139,160,149,240,138.7C320,128,400,96,480,69.3C560,43,640,21,720,58.7C800,96,880,192,960,245.3C1040,299,1120,309,1200,266.7C1280,224,1360,128,1400,80L1440,32L1440,320L1400,320C1360,320,1280,320,1200,320C1120,320,1040,320,960,320C880,320,800,320,720,320C640,320,560,320,480,320C400,320,320,320,240,320C160,320,80,320,40,320L0,320Z"></path></svg>